<mxfile host="app.diagrams.net" agent="Mozilla/5.0 (Windows NT 10.0; Win64; x64) AppleWebKit/537.36 (KHTML, like Gecko) Chrome/130.0.0.0 Safari/537.36" version="24.8.2">
  <diagram name="Page-1" id="Wz17-LOQhPbDC_Z8tuTn">
    <mxGraphModel dx="1434" dy="833" grid="1" gridSize="10" guides="1" tooltips="1" connect="1" arrows="1" fold="1" page="1" pageScale="1" pageWidth="827" pageHeight="1169" math="0" shadow="0">
      <root>
        <mxCell id="0" />
        <mxCell id="1" parent="0" />
        <mxCell id="_NnPaOm6Qb0ykb07O2wS-2" value="&lt;span style=&quot;font-size: 19px;&quot;&gt;Weather&lt;/span&gt;" style="rounded=0;whiteSpace=wrap;html=1;" vertex="1" parent="1">
          <mxGeometry x="354" y="20" width="120" height="60" as="geometry" />
        </mxCell>
        <mxCell id="_NnPaOm6Qb0ykb07O2wS-3" value="&lt;span style=&quot;font-size: 19px;&quot;&gt;Parents&lt;/span&gt;" style="rounded=0;whiteSpace=wrap;html=1;" vertex="1" parent="1">
          <mxGeometry x="70" y="160" width="120" height="60" as="geometry" />
        </mxCell>
        <mxCell id="_NnPaOm6Qb0ykb07O2wS-6" value="" style="endArrow=classic;html=1;rounded=0;exitX=0;exitY=1;exitDx=0;exitDy=0;entryX=1;entryY=0;entryDx=0;entryDy=0;" edge="1" parent="1" source="_NnPaOm6Qb0ykb07O2wS-2" target="_NnPaOm6Qb0ykb07O2wS-3">
          <mxGeometry width="50" height="50" relative="1" as="geometry">
            <mxPoint x="390" y="450" as="sourcePoint" />
            <mxPoint x="440" y="400" as="targetPoint" />
          </mxGeometry>
        </mxCell>
        <mxCell id="_NnPaOm6Qb0ykb07O2wS-7" value="&lt;font style=&quot;font-size: 15px;&quot;&gt;Sunny&lt;/font&gt;" style="edgeLabel;html=1;align=center;verticalAlign=middle;resizable=0;points=[];" vertex="1" connectable="0" parent="_NnPaOm6Qb0ykb07O2wS-6">
          <mxGeometry x="-0.0965" y="-3" relative="1" as="geometry">
            <mxPoint as="offset" />
          </mxGeometry>
        </mxCell>
        <mxCell id="_NnPaOm6Qb0ykb07O2wS-8" value="&lt;span style=&quot;font-size: 19px;&quot;&gt;Money&lt;/span&gt;" style="rounded=0;whiteSpace=wrap;html=1;" vertex="1" parent="1">
          <mxGeometry x="354" y="160" width="120" height="60" as="geometry" />
        </mxCell>
        <mxCell id="_NnPaOm6Qb0ykb07O2wS-9" value="" style="endArrow=classic;html=1;rounded=0;exitX=0.5;exitY=1;exitDx=0;exitDy=0;entryX=0.5;entryY=0;entryDx=0;entryDy=0;" edge="1" parent="1" target="_NnPaOm6Qb0ykb07O2wS-8" source="_NnPaOm6Qb0ykb07O2wS-2">
          <mxGeometry width="50" height="50" relative="1" as="geometry">
            <mxPoint x="588" y="80" as="sourcePoint" />
            <mxPoint x="674" y="400" as="targetPoint" />
          </mxGeometry>
        </mxCell>
        <mxCell id="_NnPaOm6Qb0ykb07O2wS-10" value="&lt;font style=&quot;font-size: 15px;&quot;&gt;Rainy&lt;/font&gt;" style="edgeLabel;html=1;align=center;verticalAlign=middle;resizable=0;points=[];" vertex="1" connectable="0" parent="_NnPaOm6Qb0ykb07O2wS-9">
          <mxGeometry x="-0.0965" y="-3" relative="1" as="geometry">
            <mxPoint as="offset" />
          </mxGeometry>
        </mxCell>
        <mxCell id="_NnPaOm6Qb0ykb07O2wS-13" value="&lt;span style=&quot;font-size: 19px;&quot;&gt;Parents&lt;/span&gt;" style="rounded=0;whiteSpace=wrap;html=1;" vertex="1" parent="1">
          <mxGeometry x="650" y="160" width="120" height="60" as="geometry" />
        </mxCell>
        <mxCell id="_NnPaOm6Qb0ykb07O2wS-14" value="" style="endArrow=classic;html=1;rounded=0;exitX=1;exitY=1;exitDx=0;exitDy=0;entryX=0.5;entryY=0;entryDx=0;entryDy=0;" edge="1" parent="1" target="_NnPaOm6Qb0ykb07O2wS-13" source="_NnPaOm6Qb0ykb07O2wS-2">
          <mxGeometry width="50" height="50" relative="1" as="geometry">
            <mxPoint x="640" y="80" as="sourcePoint" />
            <mxPoint x="900" y="400" as="targetPoint" />
          </mxGeometry>
        </mxCell>
        <mxCell id="_NnPaOm6Qb0ykb07O2wS-15" value="&lt;font style=&quot;font-size: 15px;&quot;&gt;Windy&lt;/font&gt;" style="edgeLabel;html=1;align=center;verticalAlign=middle;resizable=0;points=[];" vertex="1" connectable="0" parent="_NnPaOm6Qb0ykb07O2wS-14">
          <mxGeometry x="-0.0965" y="-3" relative="1" as="geometry">
            <mxPoint as="offset" />
          </mxGeometry>
        </mxCell>
        <mxCell id="_NnPaOm6Qb0ykb07O2wS-16" value="&lt;span style=&quot;font-size: 19px;&quot;&gt;Money&lt;/span&gt;" style="rounded=0;whiteSpace=wrap;html=1;" vertex="1" parent="1">
          <mxGeometry x="560" y="320" width="120" height="60" as="geometry" />
        </mxCell>
        <mxCell id="_NnPaOm6Qb0ykb07O2wS-17" value="" style="endArrow=classic;html=1;rounded=0;exitX=0.5;exitY=1;exitDx=0;exitDy=0;entryX=0.5;entryY=0;entryDx=0;entryDy=0;" edge="1" parent="1" target="_NnPaOm6Qb0ykb07O2wS-16" source="_NnPaOm6Qb0ykb07O2wS-13">
          <mxGeometry width="50" height="50" relative="1" as="geometry">
            <mxPoint x="530" y="240" as="sourcePoint" />
            <mxPoint x="956" y="560" as="targetPoint" />
          </mxGeometry>
        </mxCell>
        <mxCell id="_NnPaOm6Qb0ykb07O2wS-18" value="&lt;font style=&quot;font-size: 15px;&quot;&gt;No&lt;/font&gt;" style="edgeLabel;html=1;align=center;verticalAlign=middle;resizable=0;points=[];" vertex="1" connectable="0" parent="_NnPaOm6Qb0ykb07O2wS-17">
          <mxGeometry x="-0.0965" y="-3" relative="1" as="geometry">
            <mxPoint as="offset" />
          </mxGeometry>
        </mxCell>
        <mxCell id="_NnPaOm6Qb0ykb07O2wS-20" value="&lt;font style=&quot;font-size: 20px;&quot;&gt;Cinema&lt;/font&gt;" style="text;html=1;align=center;verticalAlign=middle;resizable=0;points=[];autosize=1;strokeColor=none;fillColor=none;" vertex="1" parent="1">
          <mxGeometry y="280" width="90" height="40" as="geometry" />
        </mxCell>
        <mxCell id="_NnPaOm6Qb0ykb07O2wS-21" value="" style="endArrow=classic;html=1;rounded=0;exitX=0;exitY=1;exitDx=0;exitDy=0;" edge="1" parent="1" source="_NnPaOm6Qb0ykb07O2wS-3" target="_NnPaOm6Qb0ykb07O2wS-20">
          <mxGeometry width="50" height="50" relative="1" as="geometry">
            <mxPoint x="390" y="440" as="sourcePoint" />
            <mxPoint x="440" y="390" as="targetPoint" />
          </mxGeometry>
        </mxCell>
        <mxCell id="_NnPaOm6Qb0ykb07O2wS-22" value="&lt;font style=&quot;font-size: 15px;&quot;&gt;Yes&lt;/font&gt;" style="edgeLabel;html=1;align=center;verticalAlign=middle;resizable=0;points=[];" vertex="1" connectable="0" parent="_NnPaOm6Qb0ykb07O2wS-21">
          <mxGeometry x="-0.3147" y="3" relative="1" as="geometry">
            <mxPoint as="offset" />
          </mxGeometry>
        </mxCell>
        <mxCell id="_NnPaOm6Qb0ykb07O2wS-23" value="&lt;font style=&quot;font-size: 20px;&quot;&gt;Tennis&lt;/font&gt;" style="text;html=1;align=center;verticalAlign=middle;resizable=0;points=[];autosize=1;strokeColor=none;fillColor=none;" vertex="1" parent="1">
          <mxGeometry x="185" y="280" width="80" height="40" as="geometry" />
        </mxCell>
        <mxCell id="_NnPaOm6Qb0ykb07O2wS-24" value="" style="endArrow=classic;html=1;rounded=0;exitX=1;exitY=1;exitDx=0;exitDy=0;" edge="1" parent="1" target="_NnPaOm6Qb0ykb07O2wS-23" source="_NnPaOm6Qb0ykb07O2wS-3">
          <mxGeometry width="50" height="50" relative="1" as="geometry">
            <mxPoint x="330" y="220" as="sourcePoint" />
            <mxPoint x="650" y="390" as="targetPoint" />
          </mxGeometry>
        </mxCell>
        <mxCell id="_NnPaOm6Qb0ykb07O2wS-25" value="&lt;font style=&quot;font-size: 15px;&quot;&gt;No&lt;/font&gt;" style="edgeLabel;html=1;align=center;verticalAlign=middle;resizable=0;points=[];" vertex="1" connectable="0" parent="_NnPaOm6Qb0ykb07O2wS-24">
          <mxGeometry x="-0.3147" y="3" relative="1" as="geometry">
            <mxPoint as="offset" />
          </mxGeometry>
        </mxCell>
        <mxCell id="_NnPaOm6Qb0ykb07O2wS-28" value="&lt;font style=&quot;font-size: 20px;&quot;&gt;Cinema&lt;/font&gt;" style="text;html=1;align=center;verticalAlign=middle;resizable=0;points=[];autosize=1;strokeColor=none;fillColor=none;" vertex="1" parent="1">
          <mxGeometry x="264" y="280" width="90" height="40" as="geometry" />
        </mxCell>
        <mxCell id="_NnPaOm6Qb0ykb07O2wS-29" value="" style="endArrow=classic;html=1;rounded=0;exitX=0;exitY=1;exitDx=0;exitDy=0;" edge="1" parent="1" target="_NnPaOm6Qb0ykb07O2wS-28">
          <mxGeometry width="50" height="50" relative="1" as="geometry">
            <mxPoint x="354" y="220" as="sourcePoint" />
            <mxPoint x="674" y="390" as="targetPoint" />
          </mxGeometry>
        </mxCell>
        <mxCell id="_NnPaOm6Qb0ykb07O2wS-30" value="&lt;font style=&quot;font-size: 15px;&quot;&gt;Poor&lt;/font&gt;" style="edgeLabel;html=1;align=center;verticalAlign=middle;resizable=0;points=[];" vertex="1" connectable="0" parent="_NnPaOm6Qb0ykb07O2wS-29">
          <mxGeometry x="-0.3147" y="3" relative="1" as="geometry">
            <mxPoint x="-5" as="offset" />
          </mxGeometry>
        </mxCell>
        <mxCell id="_NnPaOm6Qb0ykb07O2wS-31" value="&lt;font style=&quot;font-size: 20px;&quot;&gt;Stay In&lt;/font&gt;" style="text;html=1;align=center;verticalAlign=middle;resizable=0;points=[];autosize=1;strokeColor=none;fillColor=none;" vertex="1" parent="1">
          <mxGeometry x="474" y="280" width="90" height="40" as="geometry" />
        </mxCell>
        <mxCell id="_NnPaOm6Qb0ykb07O2wS-32" value="" style="endArrow=classic;html=1;rounded=0;exitX=1;exitY=1;exitDx=0;exitDy=0;" edge="1" parent="1" target="_NnPaOm6Qb0ykb07O2wS-31">
          <mxGeometry width="50" height="50" relative="1" as="geometry">
            <mxPoint x="474" y="220" as="sourcePoint" />
            <mxPoint x="884" y="390" as="targetPoint" />
          </mxGeometry>
        </mxCell>
        <mxCell id="_NnPaOm6Qb0ykb07O2wS-33" value="&lt;font style=&quot;font-size: 15px;&quot;&gt;Rich&lt;/font&gt;" style="edgeLabel;html=1;align=center;verticalAlign=middle;resizable=0;points=[];" vertex="1" connectable="0" parent="_NnPaOm6Qb0ykb07O2wS-32">
          <mxGeometry x="-0.3147" y="3" relative="1" as="geometry">
            <mxPoint x="-4" as="offset" />
          </mxGeometry>
        </mxCell>
        <mxCell id="_NnPaOm6Qb0ykb07O2wS-39" value="&lt;font style=&quot;font-size: 20px;&quot;&gt;Cinema&lt;/font&gt;" style="text;html=1;align=center;verticalAlign=middle;resizable=0;points=[];autosize=1;strokeColor=none;fillColor=none;" vertex="1" parent="1">
          <mxGeometry x="470" y="440" width="90" height="40" as="geometry" />
        </mxCell>
        <mxCell id="_NnPaOm6Qb0ykb07O2wS-40" value="" style="endArrow=classic;html=1;rounded=0;exitX=0;exitY=1;exitDx=0;exitDy=0;" edge="1" parent="1" target="_NnPaOm6Qb0ykb07O2wS-39">
          <mxGeometry width="50" height="50" relative="1" as="geometry">
            <mxPoint x="560" y="380" as="sourcePoint" />
            <mxPoint x="880" y="550" as="targetPoint" />
          </mxGeometry>
        </mxCell>
        <mxCell id="_NnPaOm6Qb0ykb07O2wS-41" value="&lt;font style=&quot;font-size: 15px;&quot;&gt;Poor&lt;/font&gt;" style="edgeLabel;html=1;align=center;verticalAlign=middle;resizable=0;points=[];" vertex="1" connectable="0" parent="_NnPaOm6Qb0ykb07O2wS-40">
          <mxGeometry x="-0.3147" y="3" relative="1" as="geometry">
            <mxPoint x="-5" as="offset" />
          </mxGeometry>
        </mxCell>
        <mxCell id="_NnPaOm6Qb0ykb07O2wS-42" value="&lt;font style=&quot;font-size: 20px;&quot;&gt;Shopping&lt;/font&gt;" style="text;html=1;align=center;verticalAlign=middle;resizable=0;points=[];autosize=1;strokeColor=none;fillColor=none;" vertex="1" parent="1">
          <mxGeometry x="670" y="440" width="110" height="40" as="geometry" />
        </mxCell>
        <mxCell id="_NnPaOm6Qb0ykb07O2wS-43" value="" style="endArrow=classic;html=1;rounded=0;exitX=1;exitY=1;exitDx=0;exitDy=0;" edge="1" parent="1" target="_NnPaOm6Qb0ykb07O2wS-42">
          <mxGeometry width="50" height="50" relative="1" as="geometry">
            <mxPoint x="680" y="380" as="sourcePoint" />
            <mxPoint x="1090" y="550" as="targetPoint" />
          </mxGeometry>
        </mxCell>
        <mxCell id="_NnPaOm6Qb0ykb07O2wS-44" value="&lt;font style=&quot;font-size: 15px;&quot;&gt;Rich&lt;/font&gt;" style="edgeLabel;html=1;align=center;verticalAlign=middle;resizable=0;points=[];" vertex="1" connectable="0" parent="_NnPaOm6Qb0ykb07O2wS-43">
          <mxGeometry x="-0.3147" y="3" relative="1" as="geometry">
            <mxPoint x="-4" as="offset" />
          </mxGeometry>
        </mxCell>
        <mxCell id="_NnPaOm6Qb0ykb07O2wS-49" value="" style="endArrow=classic;html=1;rounded=0;exitX=0.5;exitY=1;exitDx=0;exitDy=0;" edge="1" parent="1" source="_NnPaOm6Qb0ykb07O2wS-13">
          <mxGeometry width="50" height="50" relative="1" as="geometry">
            <mxPoint x="780" y="230" as="sourcePoint" />
            <mxPoint x="780" y="320" as="targetPoint" />
          </mxGeometry>
        </mxCell>
        <mxCell id="_NnPaOm6Qb0ykb07O2wS-50" value="&lt;font style=&quot;font-size: 15px;&quot;&gt;Yes&lt;/font&gt;" style="edgeLabel;html=1;align=center;verticalAlign=middle;resizable=0;points=[];" vertex="1" connectable="0" parent="_NnPaOm6Qb0ykb07O2wS-49">
          <mxGeometry x="-0.0965" y="-3" relative="1" as="geometry">
            <mxPoint as="offset" />
          </mxGeometry>
        </mxCell>
        <mxCell id="_NnPaOm6Qb0ykb07O2wS-51" value="&lt;font style=&quot;font-size: 20px;&quot;&gt;Cinema&lt;/font&gt;" style="text;html=1;align=center;verticalAlign=middle;resizable=0;points=[];autosize=1;strokeColor=none;fillColor=none;" vertex="1" parent="1">
          <mxGeometry x="737" y="320" width="90" height="40" as="geometry" />
        </mxCell>
      </root>
    </mxGraphModel>
  </diagram>
</mxfile>
